<svg version="1.1" fill="none" stroke="none" stroke-linecap="square" stroke-miterlimit="10" xmlns:xlink="http://www.w3.org/1999/xlink" xmlns="http://www.w3.org/2000/svg" viewBox="0 0 960 540"><clipPath id="gc95a344c6c_0_0.0"><path d="m0 0l960.0 0l0 540.0l-960.0 0l0 -540.0z" clip-rule="nonzero"/></clipPath><g clip-path="url(#gc95a344c6c_0_0.0)"><path fill="#ffffff" d="m0 0l960.0 0l0 540.0l-960.0 0z" fill-rule="evenodd"/><path fill="#000000" fill-opacity="0.0" d="m171.43307 211.82545l617.1339 0l0 116.34645l-617.1339 0z" fill-rule="evenodd"/><path fill="#387387" d="m276.83594 298.79868l0 -40.125l-7.34375 0l0 -2.140625l7.34375 0l0 -6.1718597q0.046875 -5.859375 2.953125 -9.125q2.90625 -3.265625 8.109375 -3.265625q2.890625 0 5.0 0.671875l-0.3125 2.03125q-2.03125 -0.59375 -4.65625 -0.59375q-4.171875 0 -6.578125 2.71875q-2.40625 2.71875 -2.40625 7.71875l0 6.0156097l11.171875 0l0 2.140625l-11.171875 0l0 40.125l-2.109375 0z" fill-rule="nonzero"/><path fill="#ffbf67" d="m326.14062 298.79868q-0.78125 -2.703125 -0.78125 -7.734375q-2.5 4.0625 -6.84375 6.296875q-4.328125 2.21875 -9.796875 2.21875q-5.859375 0 -9.4375 -3.1875q-3.578125 -3.1875 -3.578125 -8.296875q0 -5.828125 5.25 -9.3125q5.265625 -3.5 13.96875 -3.578125l10.4375 0l0 -6.171875q0 -5.3125 -3.34375 -8.234375q-3.34375 -2.9375 -9.546875 -2.9375q-5.78125 0 -9.65625 2.96875q-3.859375 2.96875 -3.859375 7.34375l-2.109375 -0.078125q0 -5.15625 4.53125 -8.75q4.53125 -3.5937347 11.09375 -3.5937347q6.828125 0 10.84375 3.4218597q4.03125 3.40625 4.15625 9.625l0 20.1875q0 6.953125 1.09375 9.453125l0 0.359375l-2.421875 0zm-17.421875 -1.296875q5.9375 0 10.203125 -2.65625q4.28125 -2.65625 6.4375 -7.453125l0 -10.046875l-9.765625 0q-9.0625 0 -13.875 3.59375q-3.90625 2.9375 -3.90625 7.3125q0 3.859375 3.078125 6.5625q3.09375 2.6875 7.828125 2.6875zm34.960938 1.296875l-2.109375 0l0 -42.265625l2.109375 0l0 42.265625zm-3.203125 -55.468735q0 -0.90625 0.625 -1.546875q0.625 -0.640625 1.515625 -0.640625q0.90625 0 1.546875 0.640625q0.640625 0.640625 0.640625 1.546875q0 0.890625 -0.640625 1.515625q-0.640625 0.625 -1.546875 0.625q-0.890625 0 -1.515625 -0.625q-0.625 -0.625 -0.625 -1.515625z" fill-rule="nonzero"/><path fill="#387387" d="m376.1797 258.04868l-2.734375 -0.234375q-5.390625 0 -9.03125 3.5q-3.625 3.5 -4.765625 9.78125l0 27.703125l-2.109375 0l0 -42.265625l2.109375 0l0 8.78125q1.71875 -4.40625 5.15625 -6.984375q3.4375 -2.5781097 8.640625 -2.5781097q1.828125 0 2.96875 0.42185974l-0.234375 1.875zm38.351562 40.75l-2.109375 0l0 -28.40625q-0.03125 -6.359375 -2.796875 -9.46875q-2.75 -3.109375 -8.765625 -3.109375q-6.953125 0 -11.359375 6.140625q-2.625 3.671875 -3.484375 8.125l0 26.71875l-2.140625 0l0 -42.265625l2.140625 0l0 10.0q2.15625 -5.15625 6.140625 -7.96875q3.984375 -2.8124847 8.828125 -2.8124847q5.3125 0 8.6875 2.3437347q3.375 2.34375 4.4375 7.65625q1.875 -4.578125 6.09375 -7.28125q4.21875 -2.7187347 9.453125 -2.7187347q6.828125 0 10.171875 3.8749847q3.34375 3.859375 3.375 11.59375l0 27.578125l-2.109375 0l0 -27.421875q0 -6.953125 -2.796875 -10.296875q-2.78125 -3.34375 -8.765625 -3.265625q-7.6875 0.125 -12.1875 6.140625q-2.578125 3.46875 -2.8125 6.71875l0 28.125zm38.28125 -21.953125q0 -6.0625 2.328125 -10.875q2.328125 -4.828125 6.5625 -7.515625q4.234375 -2.7031097 9.59375 -2.7031097q5.3125 0 9.53125 2.6249847q4.21875 2.609375 6.578125 7.421875q2.359375 4.796875 2.40625 10.8125l0 1.875q0 6.09375 -2.3125 10.90625q-2.296875 4.796875 -6.546875 7.5q-4.234375 2.6875 -9.59375 2.6875q-5.34375 0 -9.578125 -2.65625q-4.234375 -2.65625 -6.578125 -7.4375q-2.34375 -4.796875 -2.390625 -10.765625l0 -1.875zm2.109375 1.640625q0 5.265625 2.09375 9.671875q2.09375 4.390625 5.8125 6.859375q3.734375 2.453125 8.546875 2.453125q7.21875 0 11.765625 -5.421875q4.5625 -5.4375 4.5625 -14.0l0 -1.203125q0 -5.203125 -2.109375 -9.609375q-2.109375 -4.421875 -5.84375 -6.890625q-3.734375 -2.484375 -8.453125 -2.484375q-7.234375 0 -11.8125 5.515625q-4.5625 5.5 -4.5625 13.859375l0 1.25zm59.460938 18.984375q5.734375 0 9.46875 -3.046875q3.734375 -3.046875 4.078125 -8.4375l2.109375 0q-0.3125 6.125 -4.734375 9.859375q-4.40625 3.734375 -10.921875 3.734375q-7.9375 0 -12.609375 -5.734375q-4.65625 -5.75 -4.65625 -15.59375l0 -1.40625q0 -9.609375 4.65625 -15.34375q4.671875 -5.7499847 12.53125 -5.7499847q6.71875 0 11.09375 4.0312347q4.375 4.015625 4.640625 10.6875l-2.109375 0q-0.265625 -5.703125 -4.0 -9.15625q-3.734375 -3.453125 -9.625 -3.453125q-7.078125 0 -11.078125 5.09375q-4.0 5.09375 -4.0 14.15625l0 1.375q0 8.859375 4.03125 13.921875q4.046875 5.0625 11.125 5.0625zm44.882812 -39.421875l-2.734375 -0.234375q-5.390625 0 -9.03125 3.5q-3.625 3.5 -4.765625 9.78125l0 27.703125l-2.109375 0l0 -42.265625l2.109375 0l0 8.78125q1.71875 -4.40625 5.15625 -6.984375q3.4375 -2.5781097 8.640625 -2.5781097q1.828125 0 2.96875 0.42185974l-0.234375 1.875zm33.867188 40.75q-0.78125 -2.703125 -0.78125 -7.734375q-2.5 4.0625 -6.84375 6.296875q-4.328125 2.21875 -9.796875 2.21875q-5.859375 0 -9.4375 -3.1875q-3.578125 -3.1875 -3.578125 -8.296875q0 -5.828125 5.25 -9.3125q5.265625 -3.5 13.96875 -3.578125l10.4375 0l0 -6.171875q0 -5.3125 -3.34375 -8.234375q-3.34375 -2.9375 -9.546875 -2.9375q-5.78125 0 -9.65625 2.96875q-3.859375 2.96875 -3.859375 7.34375l-2.109375 -0.078125q0 -5.15625 4.53125 -8.75q4.53125 -3.5937347 11.09375 -3.5937347q6.828125 0 10.84375 3.4218597q4.03125 3.40625 4.15625 9.625l0 20.1875q0 6.953125 1.09375 9.453125l0 0.359375l-2.421875 0zm-17.421875 -1.296875q5.9375 0 10.203125 -2.65625q4.28125 -2.65625 6.4375 -7.453125l0 -10.046875l-9.765625 0q-9.0625 0 -13.875 3.59375q-3.90625 2.9375 -3.90625 7.3125q0 3.859375 3.078125 6.5625q3.09375 2.6875 7.828125 2.6875zm46.679688 -0.03125q5.734375 0 9.46875 -3.046875q3.734375 -3.046875 4.078125 -8.4375l2.109375 0q-0.3125 6.125 -4.734375 9.859375q-4.40625 3.734375 -10.921875 3.734375q-7.9375 0 -12.609375 -5.734375q-4.65625 -5.75 -4.65625 -15.59375l0 -1.40625q0 -9.609375 4.65625 -15.34375q4.671875 -5.7499847 12.53125 -5.7499847q6.71875 0 11.09375 4.0312347q4.375 4.015625 4.640625 10.6875l-2.109375 0q-0.265625 -5.703125 -4.0 -9.15625q-3.734375 -3.453125 -9.625 -3.453125q-7.078125 0 -11.078125 5.09375q-4.0 5.09375 -4.0 14.15625l0 1.375q0 8.859375 4.03125 13.921875q4.046875 5.0625 11.125 5.0625zm39.179688 -1.953125l0.265625 -0.78125l14.609375 -38.203125l2.34375 0l-18.90625 49.609375l-0.9375 2.34375q-3.046875 7.390625 -10.078125 7.390625q-2.265625 0 -3.125 -0.4375l-0.03125 -1.984375q1.25 0.34375 2.84375 0.34375q3.328125 0 5.515625 -1.9375q2.1875 -1.921875 3.78125 -6.296875l2.578125 -7.0l-16.828125 -42.03125l2.296875 0l15.671875 38.984375zm20.117188 1.359375q0 -0.890625 0.625 -1.53125q0.625 -0.65625 1.515564 -0.65625q0.90625 0 1.546875 0.65625q0.640625 0.640625 0.640625 1.546875q0 0.890625 -0.640625 1.515625q-0.640625 0.625 -1.546875 0.625q-0.89056396 0 -1.515564 -0.625q-0.625 -0.625 -0.625 -1.53125z" fill-rule="nonzero"/></g></svg>