<svg version="1.1" viewBox="0.0 0.0 960.0 540.0" fill="none" stroke="none" stroke-linecap="square" stroke-miterlimit="10" xmlns:xlink="http://www.w3.org/1999/xlink" xmlns="http://www.w3.org/2000/svg"><clipPath id="gc95a344c6c_0_0.0"><path d="m0 0l960.0 0l0 540.0l-960.0 0l0 -540.0z" clip-rule="nonzero"/></clipPath><g clip-path="url(#gc95a344c6c_0_0.0)"><path fill="#ffffff" d="m0 0l960.0 0l0 540.0l-960.0 0z" fill-rule="evenodd"/><path fill="#000000" fill-opacity="0.0" d="m0 173.68504l960.0 0l0 192.62993l-960.0 0z" fill-rule="evenodd"/><path fill="#387387" d="m46.61664 331.44l0 -85.578125l-15.671875 0l0 -4.578125l15.671875 0l0 -13.171875q0.078125 -12.5 6.28125 -19.453125q6.21875 -6.953125 17.296875 -6.953125q6.15625 0 10.65625 1.40625l-0.65625 4.328125q-4.34375 -1.25 -9.921875 -1.25q-8.90625 0 -14.03125 5.796875q-5.125 5.796875 -5.125 16.453125l0 12.84375l23.828125 0l0 4.578125l-23.828125 0l0 85.578125l-4.5 0z" fill-rule="nonzero"/><path fill="#ffbf67" d="m151.7696 331.44q-1.671875 -5.75 -1.671875 -16.5q-5.328125 8.671875 -14.578125 13.421875q-9.25 4.75 -20.90625 4.75q-12.5 0 -20.125 -6.796875q-7.625 -6.796875 -7.625 -17.703125q0 -12.421875 11.203125 -19.875q11.203125 -7.453125 29.78125 -7.625l22.25 0l0 -13.171875q0 -11.328125 -7.125 -17.578125q-7.125 -6.25 -20.375 -6.25q-12.328125 0 -20.578125 6.34375q-8.25 6.328125 -8.25 15.65625l-4.5 -0.171875q0 -11.0 9.671875 -18.65625q9.671875 -7.671875 23.65625 -7.671875q14.59375 0 23.171875 7.296875q8.578125 7.28125 8.828125 20.53125l0 43.078125q0 14.84375 2.34375 20.171875l0 0.75l-5.171875 0zm-37.15625 -2.75q12.65625 0 21.78125 -5.65625q9.125 -5.671875 13.703125 -15.921875l0 -21.421875l-20.828125 0q-19.328125 0 -29.578125 7.671875q-8.328125 6.25 -8.328125 15.578125q0 8.25 6.578125 14.0q6.578125 5.75 16.671875 5.75zm74.577835 2.75l-4.5 0l0 -90.15625l4.5 0l0 90.15625zm-6.84375 -118.328125q0 -1.921875 1.328125 -3.296875q1.34375 -1.375 3.25 -1.375q1.921875 0 3.296875 1.375q1.375 1.375 1.375 3.296875q0 1.921875 -1.375 3.25q-1.375 1.328125 -3.296875 1.328125q-1.90625 0 -3.25 -1.328125q-1.328125 -1.328125 -1.328125 -3.25z" fill-rule="nonzero"/><path fill="#387387" d="m258.51196 244.53375l-5.828125 -0.5q-11.5 0 -19.25 7.453125q-7.75 7.453125 -10.171875 20.875l0 59.078125l-4.5 0l0 -90.15625l4.5 0l0 18.75q3.671875 -9.421875 11.0 -14.921875q7.34375 -5.5 18.421875 -5.5q3.90625 0 6.328125 0.921875l-0.5 4.0zm81.829834 86.90625l-4.5 0l0 -60.578125q-0.078125 -13.578125 -5.953125 -20.203125q-5.875 -6.625 -18.71875 -6.625q-14.828125 0 -24.234375 13.078125q-5.59375 7.828125 -7.421875 17.328125l0 57.0l-4.578125 0l0 -90.15625l4.578125 0l0 21.328125q4.578125 -11.0 13.078125 -17.0q8.5 -6.0 18.828125 -6.0q11.34375 0 18.546875 5.0q7.203125 5.0 9.453125 16.328125q4.0 -9.75 13.0 -15.53125q9.0 -5.796875 20.171875 -5.796875q14.578125 0 21.703125 8.25q7.125 8.25 7.203125 24.75l0 58.828125l-4.5 0l0 -58.5q0 -14.828125 -5.953125 -21.953125q-5.953125 -7.125 -18.703125 -6.953125q-16.421875 0.25 -26.0 13.078125q-5.5 7.421875 -6.0 14.328125l0 60.0zm81.66254 -46.828125q0 -12.921875 4.953125 -23.203125q4.96875 -10.296875 14.0 -16.046875q9.046875 -5.75 20.453125 -5.75q11.34375 0 20.34375 5.59375q9.0 5.578125 14.03125 15.828125q5.046875 10.25 5.125 23.078125l0 4.0q0 13.0 -4.921875 23.25q-4.90625 10.25 -13.953125 16.0q-9.03125 5.75 -20.453125 5.75q-11.40625 0 -20.453125 -5.671875q-9.046875 -5.671875 -14.046875 -15.875q-5.0 -10.203125 -5.078125 -22.953125l0 -4.0zm4.5 3.5q0 11.25 4.453125 20.625q4.46875 9.375 12.421875 14.625q7.953125 5.25 18.203125 5.25q15.421875 0 25.125 -11.578125q9.703125 -11.59375 9.703125 -29.84375l0 -2.578125q0 -11.078125 -4.5 -20.5q-4.5 -9.421875 -12.453125 -14.703125q-7.953125 -5.296875 -18.046875 -5.296875q-15.40625 0 -25.15625 11.75q-9.75 11.75 -9.75 29.578125l0 2.671875zm126.8172 40.5q12.25 0 20.203125 -6.5q7.96875 -6.5 8.71875 -18.0l4.5 0q-0.671875 13.078125 -10.09375 21.046875q-9.40625 7.953125 -23.328125 7.953125q-16.90625 0 -26.875 -12.25q-9.953125 -12.25 -9.953125 -33.25l0 -3.0q0 -20.5 9.953125 -32.75q9.96875 -12.25 26.71875 -12.25q14.328125 0 23.65625 8.59375q9.34375 8.578125 9.921875 22.828125l-4.5 0q-0.578125 -12.171875 -8.546875 -19.546875q-7.953125 -7.375 -20.53125 -7.375q-15.078125 0 -23.625 10.875q-8.546875 10.875 -8.546875 30.203125l0 2.921875q0 18.90625 8.625 29.703125q8.625 10.796875 23.703125 10.796875zm95.74994 -84.078125l-5.828125 -0.5q-11.5 0 -19.25 7.453125q-7.75 7.453125 -10.171875 20.875l0 59.078125l-4.5 0l0 -90.15625l4.5 0l0 18.75q3.671875 -9.421875 11.0 -14.921875q7.34375 -5.5 18.421875 -5.5q3.90625 0 6.328125 0.921875l-0.5 4.0zm72.24652 86.90625q-1.671875 -5.75 -1.671875 -16.5q-5.328125 8.671875 -14.578125 13.421875q-9.25 4.75 -20.90625 4.75q-12.5 0 -20.125 -6.796875q-7.625 -6.796875 -7.625 -17.703125q0 -12.421875 11.203125 -19.875q11.203125 -7.453125 29.78125 -7.625l22.25 0l0 -13.171875q0 -11.328125 -7.125 -17.578125q-7.125 -6.25 -20.375 -6.25q-12.328125 0 -20.578125 6.34375q-8.25 6.328125 -8.25 15.65625l-4.5 -0.171875q0 -11.0 9.671875 -18.65625q9.671875 -7.671875 23.65625 -7.671875q14.59375 0 23.171875 7.296875q8.578125 7.28125 8.828125 20.53125l0 43.078125q0 14.84375 2.34375 20.171875l0 0.75l-5.171875 0zm-37.15625 -2.75q12.65625 0 21.78125 -5.65625q9.125 -5.671875 13.703125 -15.921875l0 -21.421875l-20.828125 0q-19.328125 0 -29.578125 7.671875q-8.328125 6.25 -8.328125 15.578125q0 8.25 6.578125 14.0q6.578125 5.75 16.671875 5.75zm99.562195 -0.078125q12.25 0 20.203125 -6.5q7.96875 -6.5 8.71875 -18.0l4.5 0q-0.671875 13.078125 -10.09375 21.046875q-9.40625 7.953125 -23.328125 7.953125q-16.90625 0 -26.875 -12.25q-9.953125 -12.25 -9.953125 -33.25l0 -3.0q0 -20.5 9.953125 -32.75q9.96875 -12.25 26.71875 -12.25q14.328125 0 23.65625 8.59375q9.34375 8.578125 9.921875 22.828125l-4.5 0q-0.578125 -12.171875 -8.546875 -19.546875q-7.953125 -7.375 -20.53125 -7.375q-15.078125 0 -23.625 10.875q-8.546875 10.875 -8.546875 30.203125l0 2.921875q0 18.90625 8.625 29.703125q8.625 10.796875 23.703125 10.796875zm83.59369 -4.171875l0.578125 -1.671875l31.15625 -81.484375l5.0 0l-40.328125 105.828125l-2.0 5.0q-6.5 15.75 -21.5 15.75q-4.828125 0 -6.65625 -0.921875l-0.09375 -4.25q2.671875 0.75 6.09375 0.75q7.078125 0 11.734375 -4.125q4.671875 -4.125 8.09375 -13.453125l5.5 -14.921875l-35.921875 -89.65625l4.921875 0l33.421875 83.15625zm42.906494 2.921875q0 -1.921875 1.328125 -3.296875q1.34375 -1.375 3.25 -1.375q1.921875 0 3.296875 1.375q1.375 1.375 1.375 3.296875q0 1.90625 -1.375 3.25q-1.375 1.328125 -3.296875 1.328125q-1.90625 0 -3.25 -1.328125q-1.328125 -1.34375 -1.328125 -3.25z" fill-rule="nonzero"/></g></svg>